# xmcd
#
# Track frame offsets:
#	150
#	42865
#	61688
#	80687
#	95131
#	115567
#	157827
#	182133
#
# Disc length: 2872 seconds
#
# Revision: 1
# Processed by: cddbd v1.5.1PL2 Copyright (c) Steve Scherf et al.
# Submitted via: EasyCDDAExtractor 9.0.0.1
#
DISCID=5a0b3608
DTITLE=Nils Lofgren - Stenhammarsalen Konserthuset Gothenburg 27-05-06 Disc 2
DYEAR=2006
DGENRE=Acoustic
TTITLE0=Keith Don't Go
TTITLE1=Believe
TTITLE2=Goin' BAck
TTITLE3=The Sun Hasn't Set (On This Boy Yet)
TTITLE4=Mud In Eyes
TTITLE5=Because The Night
TTITLE6=No Mercy
TTITLE7=Shine Silently
EXTD=
EXTT0=
EXTT1=
EXTT2=
EXTT3=
EXTT4=
EXTT5=
EXTT6=
EXTT7=
PLAYORDER=
